<svg width="656" height="94" viewBox="0 0 656 94" fill="none" xmlns="http://www.w3.org/2000/svg">
<path fill-rule="evenodd" clip-rule="evenodd" d="M16.7283 44.5131C16.6124 43.7615 15.8298 38.6842 16.0987 35.027C18.758 -1.13715 63.2213 -10.3486 81.2849 14.9754C105.433 48.8297 65.7806 92.0014 30.7422 66.8381C29.4159 65.8854 29.2249 66.3648 27.4616 68.0798C25.7063 69.7872 28.0164 70.4906 26.8344 72.6061C25.5014 74.9924 11.5943 88.2825 10.2202 89.5962C5.0277 94.5583 -2.72404 87.5554 0.959053 81.8393C3.12249 78.4821 16.0738 66.0865 17.4452 64.774C19.386 62.9166 20.636 64.3517 21.3474 64.3782C22.2454 64.4119 24.4132 61.724 24.4618 61.5352C25.1483 58.8695 20.7641 60.277 16.7283 44.5131ZM52.1353 10.7732C37.5702 10.7732 25.745 22.6092 25.745 37.1876C25.745 51.7661 37.5702 63.6021 52.1353 63.6021C66.7004 63.6021 78.5255 51.7661 78.5255 37.1876C78.5255 22.6092 66.7004 10.7732 52.1353 10.7732Z" fill="#EA823D"/>
<path d="M139.114 73.8671C133.266 73.8671 128.234 72.9168 124.016 71.0164C119.799 69.1159 115.959 66.2146 112.498 62.3127L122.731 52.0702C125.016 54.7276 127.553 56.7794 130.343 58.2258C133.132 59.6722 136.392 60.3954 140.122 60.3954C143.449 60.3954 146.045 59.7816 147.91 58.5538C149.776 57.3261 150.708 55.6358 150.708 53.483C150.708 51.5656 150.103 49.9932 148.893 48.7654C147.684 47.5376 146.087 46.4864 144.104 45.6118C142.122 44.7373 139.937 43.9049 137.551 43.1144C135.165 42.3239 132.787 41.3988 130.418 40.3392C128.049 39.2798 125.873 37.9679 123.89 36.4037C121.907 34.8396 120.311 32.855 119.101 30.45C117.892 28.0449 117.287 25.0428 117.287 21.4436C117.287 17.0372 118.354 13.2615 120.488 10.1164C122.622 6.9713 125.571 4.56615 129.334 2.9011C133.098 1.23621 137.417 0.403687 142.29 0.403687C147.297 0.403687 151.868 1.2866 156.001 3.05259C160.135 4.81841 163.529 7.19836 166.184 10.192L155.9 20.4345C153.783 18.2144 151.624 16.5662 149.423 15.4899C147.221 14.4135 144.76 13.8753 142.038 13.8753C139.248 13.8753 137.047 14.3966 135.434 15.4394C133.821 16.4821 133.014 17.979 133.014 19.93C133.014 21.7127 133.619 23.1592 134.829 24.2691C136.039 25.3791 137.635 26.3463 139.618 27.1703C141.601 27.9945 143.785 28.8102 146.171 29.6175C148.557 30.4248 150.935 31.3581 153.304 32.4177C155.673 33.4773 157.849 34.8312 159.832 36.4794C161.815 38.1276 163.411 40.2131 164.621 42.7359C165.831 45.2588 166.436 48.3702 166.436 52.0702C166.436 58.8985 164.016 64.2384 159.177 68.0899C154.338 71.9413 147.65 73.8671 139.114 73.8671Z" fill="black"/>
<path d="M175.056 72.7571V23.7141H190.481V72.7571H175.056ZM182.768 16.9532C180.383 16.9532 178.4 16.1375 176.82 14.506C175.241 12.8746 174.451 10.8649 174.451 8.47658C174.451 6.08828 175.241 4.07854 176.82 2.44719C178.4 0.815676 180.383 0 182.768 0C185.222 0 187.221 0.815676 188.767 2.44719C190.313 4.07854 191.086 6.08828 191.086 8.47658C191.086 10.8649 190.313 12.8746 188.767 14.506C187.221 16.1375 185.222 16.9532 182.768 16.9532Z" fill="black"/>
<path d="M208.326 72.7571V3.43103H223.751V72.7571H208.326ZM197.236 36.8327V23.7141H234.842V36.8327H197.236Z" fill="black"/>
<path d="M264.734 73.8672C259.425 73.8672 254.711 72.7739 250.594 70.5875C246.478 68.401 243.243 65.3654 240.891 61.4802C238.538 57.5952 237.362 53.1803 237.362 48.2356C237.362 43.3247 238.513 38.9433 240.815 35.092C243.117 31.2405 246.259 28.1964 250.242 25.9594C254.224 23.7226 258.685 22.6041 263.625 22.6041C268.464 22.6041 272.741 23.6554 276.454 25.7577C280.168 27.8599 283.083 30.7612 285.2 34.4612C287.318 38.1613 288.376 42.3827 288.376 47.1256C288.376 48.0339 288.326 48.9757 288.225 49.9512C288.124 50.9267 287.939 52.0367 287.671 53.2813L245.428 53.4326V42.8368L281.117 42.6855L274.463 47.1761C274.396 44.3506 273.951 42.0043 273.128 40.1375C272.304 38.2706 271.111 36.8495 269.548 35.874C267.986 34.8985 266.045 34.4108 263.726 34.4108C261.306 34.4108 259.206 34.9657 257.425 36.0759C255.644 37.1858 254.274 38.7585 253.316 40.7934C252.359 42.8285 251.88 45.2755 251.88 48.1348C251.88 51.0274 252.392 53.5082 253.417 55.577C254.442 57.6456 255.913 59.2266 257.828 60.3197C259.744 61.413 262.029 61.9596 264.684 61.9596C267.104 61.9596 269.288 61.5475 271.237 60.7234C273.186 59.8993 274.9 58.6463 276.379 56.9644L284.848 65.441C282.428 68.2329 279.504 70.3352 276.076 71.748C272.648 73.1608 268.868 73.8672 264.734 73.8672Z" fill="black"/>
<path d="M318.572 73.8671C312.724 73.8671 307.692 72.9168 303.474 71.0164C299.256 69.1159 295.417 66.2146 291.955 62.3127L302.188 52.0702C304.474 54.7276 307.011 56.7794 309.8 58.2258C312.59 59.6722 315.849 60.3954 319.58 60.3954C322.907 60.3954 325.503 59.7816 327.368 58.5538C329.233 57.3261 330.166 55.6358 330.166 53.483C330.166 51.5656 329.561 49.9932 328.351 48.7654C327.141 47.5376 325.545 46.4864 323.562 45.6118C321.579 44.7373 319.395 43.9049 317.009 43.1144C314.623 42.3239 312.245 41.3988 309.876 40.3392C307.507 39.2798 305.331 37.9679 303.348 36.4037C301.365 34.8396 299.769 32.855 298.559 30.45C297.349 28.0449 296.744 25.0428 296.744 21.4436C296.744 17.0372 297.811 13.2615 299.945 10.1164C302.079 6.9713 305.028 4.56615 308.792 2.9011C312.556 1.23621 316.874 0.403687 321.747 0.403687C326.755 0.403687 331.325 1.2866 335.459 3.05259C339.592 4.81841 342.987 7.19836 345.641 10.192L335.358 20.4345C333.241 18.2144 331.082 16.5662 328.88 15.4899C326.679 14.4135 324.217 13.8753 321.495 13.8753C318.706 13.8753 316.505 14.3966 314.892 15.4394C313.279 16.4821 312.472 17.979 312.472 19.93C312.472 21.7127 313.077 23.1592 314.287 24.2691C315.497 25.3791 317.093 26.3463 319.076 27.1703C321.058 27.9945 323.243 28.8102 325.629 29.6175C328.015 30.4248 330.393 31.3581 332.762 32.4177C335.131 33.4773 337.307 34.8312 339.29 36.4794C341.273 38.1276 342.869 40.2131 344.079 42.7359C345.289 45.2588 345.894 48.3702 345.894 52.0702C345.894 58.8985 343.474 64.2384 338.634 68.0899C333.795 71.9413 327.107 73.8671 318.572 73.8671Z" fill="black"/>
<path d="M382.743 73.7662C379.416 73.7662 376.374 73.1271 373.619 71.8489C370.863 70.5706 368.62 68.8048 366.889 66.551C365.158 64.2973 364.159 61.7242 363.89 58.8313V38.1445C364.159 35.2517 365.167 32.6365 366.914 30.2986C368.662 27.9608 370.912 26.1108 373.664 24.7485C376.417 23.3863 379.443 22.7051 382.743 22.7051C387.381 22.7051 391.497 23.8151 395.093 26.0352C398.689 28.2551 401.512 31.2909 403.562 35.1424C405.612 38.9939 406.637 43.3751 406.637 48.2861C406.637 53.1635 405.612 57.5195 403.562 61.3541C401.512 65.1887 398.689 68.216 395.093 70.4361C391.497 72.6563 387.381 73.7662 382.743 73.7662ZM354.513 93.4439V23.7141H369.939V36.3045L367.368 48.2356L369.687 60.1432V93.4439H354.513ZM379.948 59.8404C382.126 59.8404 384.044 59.3444 385.701 58.352C387.358 57.3597 388.657 55.988 389.598 54.2368C390.54 52.4854 391.01 50.4789 391.01 48.2167C391.01 45.9421 390.54 43.9385 389.598 42.2062C388.657 40.4739 387.363 39.1115 385.714 38.1193C384.065 37.127 382.166 36.6308 380.017 36.6308C377.869 36.6308 375.963 37.1218 374.299 38.1036C372.636 39.0854 371.342 40.4471 370.418 42.1889C369.494 43.9306 369.032 45.9441 369.032 48.2293C369.032 50.4872 369.485 52.4908 370.392 54.2399C371.3 55.9891 372.585 57.3597 374.249 58.352C375.912 59.3444 377.812 59.8404 379.948 59.8404Z" fill="black"/>
<path d="M438.647 73.8672C433.337 73.8672 428.624 72.7739 424.507 70.5875C420.39 68.401 417.156 65.3654 414.803 61.4802C412.451 57.5952 411.275 53.1803 411.275 48.2356C411.275 43.3247 412.426 38.9433 414.728 35.092C417.03 31.2405 420.172 28.1964 424.154 25.9594C428.137 23.7226 432.598 22.6041 437.538 22.6041C442.377 22.6041 446.654 23.6554 450.367 25.7577C454.081 27.8599 456.996 30.7612 459.113 34.4612C461.23 38.1613 462.289 42.3827 462.289 47.1256C462.289 48.0339 462.239 48.9757 462.138 49.9512C462.037 50.9267 461.852 52.0367 461.583 53.2813L419.34 53.4326V42.8368L455.03 42.6855L448.376 47.1761C448.309 44.3506 447.863 42.0043 447.04 40.1375C446.217 38.2706 445.024 36.8495 443.461 35.874C441.898 34.8985 439.957 34.4108 437.639 34.4108C435.219 34.4108 433.119 34.9657 431.338 36.0759C429.556 37.1858 428.187 38.7585 427.229 40.7934C426.271 42.8285 425.792 45.2755 425.792 48.1348C425.792 51.0274 426.305 53.5082 427.33 55.577C428.355 57.6456 429.825 59.2266 431.741 60.3197C433.656 61.413 435.942 61.9596 438.597 61.9596C441.016 61.9596 443.201 61.5475 445.15 60.7234C447.099 59.8993 448.813 58.6463 450.292 56.9644L458.76 65.441C456.341 68.2329 453.417 70.3352 449.989 71.748C446.561 73.1608 442.78 73.8672 438.647 73.8672Z" fill="black"/>
<path d="M493.392 73.8672C488.317 73.8672 483.738 72.757 479.655 70.5371C475.572 68.3169 472.354 65.2645 470.001 61.3793C467.649 57.4943 466.473 53.1298 466.473 48.2861C466.473 43.3751 467.657 38.9854 470.027 35.1172C472.396 31.2489 475.631 28.1964 479.731 25.9594C483.83 23.7226 488.435 22.6041 493.543 22.6041C497.374 22.6041 500.886 23.2685 504.078 24.5972C507.271 25.9259 510.111 27.8852 512.597 30.4752L502.768 40.3646C501.625 39.12 500.289 38.1865 498.76 37.5642C497.231 36.9419 495.492 36.6308 493.543 36.6308C491.358 36.6308 489.409 37.1186 487.695 38.0941C485.981 39.0694 484.629 40.415 483.637 42.1304C482.646 43.846 482.15 45.8643 482.15 48.1852C482.15 50.4725 482.646 52.4908 483.637 54.2399C484.629 55.9891 485.99 57.3596 487.72 58.352C489.451 59.3443 491.392 59.8404 493.543 59.8404C495.593 59.8404 497.399 59.4957 498.962 58.8061C500.524 58.1166 501.877 57.1159 503.02 55.804L512.85 65.6932C510.262 68.3842 507.363 70.4193 504.154 71.7984C500.944 73.1776 497.357 73.8672 493.392 73.8672Z" fill="black"/>
<path d="M525.855 72.7571V3.43103H541.281V72.7571H525.855ZM514.765 36.8327V23.7141H552.371V36.8327H514.765Z" fill="black"/>
<path d="M581.709 73.8672C576.634 73.8672 572.072 72.7403 568.023 70.4865C563.973 68.2329 560.772 65.155 558.42 61.2532C556.067 57.3513 554.891 52.9785 554.891 48.1348C554.891 43.291 556.059 38.9518 558.395 35.1172C560.73 31.2826 563.923 28.2384 567.972 25.9846C572.022 23.731 576.584 22.6041 581.659 22.6041C586.766 22.6041 591.337 23.7226 595.37 25.9594C599.402 28.1964 602.595 31.2405 604.948 35.092C607.3 38.9433 608.476 43.291 608.476 48.1348C608.476 52.9785 607.309 57.3513 604.973 61.2532C602.637 65.155 599.453 68.2329 595.42 70.4865C591.387 72.7403 586.817 73.8672 581.709 73.8672ZM581.659 59.8404C583.876 59.8404 585.826 59.3527 587.506 58.3772C589.186 57.4017 590.489 56.0311 591.413 54.2651C592.337 52.4991 592.799 50.4725 592.799 48.1852C592.799 45.8978 592.32 43.8881 591.362 42.1558C590.405 40.4233 589.102 39.0694 587.455 38.0941C585.809 37.1186 583.876 36.6308 581.659 36.6308C579.508 36.6308 577.592 37.1269 575.912 38.1193C574.232 39.1115 572.921 40.4739 571.98 42.2062C571.039 43.9385 570.568 45.9484 570.568 48.2356C570.568 50.4894 571.039 52.4991 571.98 54.2651C572.921 56.0311 574.232 57.4017 575.912 58.3772C577.592 59.3527 579.508 59.8404 581.659 59.8404Z" fill="black"/>
<path d="M616.139 72.757V23.7141H631.564V72.757H616.139ZM631.564 45.8643L625.061 40.8186C626.338 35.0667 628.506 30.6097 631.564 27.448C634.622 24.286 638.806 22.7051 644.116 22.7051C646.468 22.7051 648.543 23.0583 650.341 23.7647C652.139 24.4711 653.71 25.5642 655.055 27.0442L645.88 38.649C645.208 37.9091 644.374 37.3457 643.379 36.9588C642.384 36.572 641.235 36.3785 639.932 36.3785C637.378 36.3785 635.345 37.1649 633.832 38.7374C632.32 40.3098 631.564 42.6855 631.564 45.8643Z" fill="black"/>
</svg>
