<?xml version="1.0" encoding="UTF-8" standalone="no"?>
<!DOCTYPE svg PUBLIC "-//W3C//DTD SVG 1.1//EN" "http://www.w3.org/Graphics/SVG/1.1/DTD/svg11.dtd">
<svg width="100%" height="100%" viewBox="0 0 3068 759" version="1.1" xmlns="http://www.w3.org/2000/svg" xmlns:xlink="http://www.w3.org/1999/xlink" xml:space="preserve" xmlns:serif="http://www.serif.com/" style="fill-rule:evenodd;clip-rule:evenodd;stroke-linejoin:round;stroke-miterlimit:2;">
    <g transform="matrix(1,0,0,1,-74.40256,-58.301162)">
        <g transform="matrix(1,0,0,1,0,1041)">
            <g transform="matrix(3.311523,0,0,3.311523,-73,-1133.791847)">
                <path d="M86.815,156.448C86.522,154.549 84.543,141.721 85.223,132.481C91.948,41.111 204.389,17.838 250.069,81.82C311.136,167.354 210.861,276.429 122.254,212.853C118.9,210.446 118.417,211.657 113.958,215.99C109.519,220.304 115.361,222.081 112.372,227.426C109.001,233.455 73.832,267.033 70.357,270.352C57.226,282.889 37.623,265.196 46.937,250.754C52.408,242.272 85.16,210.954 88.628,207.638C93.536,202.945 96.697,206.571 98.496,206.638C100.767,206.723 106.249,199.932 106.372,199.455C108.108,192.72 97.021,196.276 86.815,156.448ZM176.354,71.203C139.521,71.203 109.617,101.107 109.617,137.94C109.617,174.773 139.521,204.677 176.354,204.677C213.187,204.677 243.091,174.773 243.091,137.94C243.091,101.107 213.187,71.203 176.354,71.203Z" style="fill:rgb(234,130,61);"/>
            </g>
        </g>
        <g transform="matrix(1,0,0,1,0,1041)">
            <g transform="matrix(1.115955,0,0,0.656687,-215.824675,-873.770172)">
                <path d="M1078.59,633.302C1056.717,633.302 1037.894,627.267 1022.118,615.198C1006.342,603.129 991.981,584.704 979.034,559.925L1017.31,494.879C1025.858,511.755 1035.348,524.785 1045.781,533.971C1056.215,543.156 1068.408,547.749 1082.361,547.749C1094.805,547.749 1104.516,543.851 1111.492,536.054C1118.469,528.257 1121.957,517.523 1121.957,503.851C1121.957,491.675 1119.694,481.689 1115.169,473.892C1110.644,466.095 1104.673,459.419 1097.256,453.865C1089.84,448.311 1081.669,443.025 1072.744,438.005C1063.82,432.985 1054.926,427.11 1046.064,420.381C1037.202,413.653 1029.063,405.322 1021.647,395.388C1014.23,385.455 1008.259,372.852 1003.734,357.579C999.209,342.305 996.946,323.24 996.946,300.383C996.946,272.4 1000.937,248.422 1008.919,228.449C1016.901,208.476 1027.932,193.202 1042.01,182.628C1056.089,172.055 1072.242,166.768 1090.468,166.768C1109.198,166.768 1126.294,172.375 1141.755,183.59C1157.216,194.804 1169.912,209.918 1179.843,228.929L1141.378,293.975C1133.459,279.876 1125.382,269.409 1117.149,262.574C1108.915,255.738 1099.708,252.32 1089.526,252.32C1079.092,252.32 1070.859,255.631 1064.825,262.253C1058.792,268.875 1055.775,278.381 1055.775,290.771C1055.775,302.092 1058.037,311.278 1062.563,318.327C1067.088,325.376 1073.059,331.518 1080.475,336.751C1087.892,341.985 1096.062,347.165 1104.987,352.292C1113.912,357.419 1122.805,363.346 1131.667,370.075C1140.529,376.804 1148.668,385.402 1156.085,395.869C1163.501,406.336 1169.472,419.58 1173.997,435.601C1178.523,451.623 1180.785,471.382 1180.785,494.879C1180.785,538.243 1171.735,572.154 1153.634,596.613C1135.533,621.072 1110.518,633.302 1078.59,633.302Z" style="fill-rule:nonzero;"/>
                <path d="M1213.028,626.252L1213.028,314.802L1270.725,314.802L1270.725,626.252L1213.028,626.252ZM1241.876,271.866C1232.952,271.866 1225.535,266.686 1219.627,256.325C1213.719,245.965 1210.765,233.202 1210.765,218.035C1210.765,202.868 1213.719,190.105 1219.627,179.745C1225.535,169.384 1232.952,164.204 1241.876,164.204C1251.053,164.204 1258.532,169.384 1264.314,179.745C1270.097,190.105 1272.988,202.868 1272.988,218.035C1272.988,233.202 1270.097,245.965 1264.314,256.325C1258.532,266.686 1251.053,271.866 1241.876,271.866Z" style="fill-rule:nonzero;"/>
                <path d="M1337.473,626.252L1337.473,185.993L1395.17,185.993L1395.17,626.252L1337.473,626.252ZM1295.991,398.112L1295.991,314.802L1436.652,314.802L1436.652,398.112L1295.991,398.112Z" style="fill-rule:nonzero;"/>
                <path d="M1548.464,633.302C1528.603,633.302 1510.973,626.359 1495.574,612.474C1480.176,598.589 1468.077,579.311 1459.278,554.638C1450.479,529.966 1446.079,501.929 1446.079,470.527C1446.079,439.34 1450.385,411.516 1458.995,387.058C1467.606,362.599 1479.359,343.267 1494.255,329.061C1509.15,314.856 1525.837,307.753 1544.315,307.753C1562.416,307.753 1578.412,314.429 1592.302,327.78C1606.192,341.13 1617.097,359.555 1625.016,383.052C1632.935,406.55 1636.895,433.358 1636.895,463.478C1636.895,469.246 1636.706,475.227 1636.329,481.422C1635.952,487.617 1635.261,494.666 1634.255,502.57L1476.248,503.531L1476.248,436.242L1609.743,435.281L1584.854,463.799C1584.603,445.855 1582.937,430.955 1579.858,419.1C1576.778,407.244 1572.315,398.219 1566.47,392.024C1560.625,385.829 1553.366,382.732 1544.692,382.732C1535.642,382.732 1527.786,386.256 1521.123,393.306C1514.461,400.355 1509.339,410.342 1505.756,423.265C1502.174,436.189 1500.383,451.729 1500.383,469.887C1500.383,488.257 1502.299,504.011 1506.133,517.149C1509.967,530.286 1515.467,540.326 1522.632,547.268C1529.797,554.211 1538.345,557.682 1548.275,557.682C1557.326,557.682 1565.496,555.065 1572.787,549.832C1580.078,544.598 1586.488,536.641 1592.019,525.96L1623.696,579.791C1614.646,597.521 1603.71,610.872 1590.888,619.844C1578.066,628.816 1563.925,633.302 1548.464,633.302Z" style="fill-rule:nonzero;"/>
                <path d="M1749.838,633.302C1727.966,633.302 1709.142,627.267 1693.366,615.198C1677.591,603.129 1663.229,584.704 1650.282,559.925L1688.558,494.879C1697.106,511.755 1706.597,524.785 1717.03,533.971C1727.463,543.156 1739.656,547.749 1753.609,547.749C1766.054,547.749 1775.764,543.851 1782.741,536.054C1789.717,528.257 1793.205,517.523 1793.205,503.851C1793.205,491.675 1790.943,481.689 1786.417,473.892C1781.892,466.095 1775.921,459.419 1768.505,453.865C1761.088,448.311 1752.918,443.025 1743.993,438.005C1735.068,432.985 1726.175,427.11 1717.313,420.381C1708.451,413.653 1700.311,405.322 1692.895,395.388C1685.479,385.455 1679.508,372.852 1674.983,357.579C1670.457,342.305 1668.195,323.24 1668.195,300.383C1668.195,272.4 1672.186,248.422 1680.168,228.449C1688.15,208.476 1699.18,193.202 1713.259,182.628C1727.337,172.055 1743.49,166.768 1761.717,166.768C1780.446,166.768 1797.542,172.375 1813.003,183.59C1828.465,194.804 1841.161,209.918 1851.091,228.929L1812.626,293.975C1804.707,279.876 1796.631,269.409 1788.397,262.574C1780.164,255.738 1770.956,252.32 1760.774,252.32C1750.341,252.32 1742.107,255.631 1736.074,262.253C1730.04,268.875 1727.023,278.381 1727.023,290.771C1727.023,302.092 1729.286,311.278 1733.811,318.327C1738.336,325.376 1744.307,331.518 1751.724,336.751C1759.14,341.985 1767.311,347.165 1776.235,352.292C1785.16,357.419 1794.054,363.346 1802.916,370.075C1811.778,376.804 1819.917,385.402 1827.333,395.869C1834.75,406.336 1840.721,419.58 1845.246,435.601C1849.771,451.623 1852.034,471.382 1852.034,494.879C1852.034,538.243 1842.983,572.154 1824.882,596.613C1806.781,621.072 1781.766,633.302 1749.838,633.302Z" style="fill-rule:nonzero;"/>
                <path d="M1989.866,632.661C1977.421,632.661 1966.045,628.602 1955.738,620.485C1945.43,612.367 1937.04,601.153 1930.566,586.84C1924.092,572.528 1920.353,556.187 1919.347,537.816L1919.347,406.443C1920.353,388.072 1924.124,371.464 1930.66,356.617C1937.197,341.771 1945.613,330.022 1955.909,321.371C1966.204,312.72 1977.524,308.394 1989.866,308.394C2007.213,308.394 2022.611,315.443 2036.061,329.542C2049.511,343.64 2060.07,362.919 2067.738,387.378C2075.406,411.837 2079.24,439.66 2079.24,470.848C2079.24,501.822 2075.406,529.485 2067.738,553.837C2060.07,578.189 2049.511,597.414 2036.061,611.513C2022.611,625.612 2007.213,632.661 1989.866,632.661ZM1884.276,757.625L1884.276,314.802L1941.973,314.802L1941.973,394.758L1932.357,470.527L1941.031,546.147L1941.031,757.625L1884.276,757.625ZM1979.413,544.224C1987.56,544.224 1994.733,541.074 2000.932,534.772C2007.13,528.47 2011.989,519.759 2015.509,508.638C2019.029,497.516 2020.789,484.773 2020.789,470.407C2020.789,455.962 2019.029,443.238 2015.509,432.237C2011.989,421.236 2007.146,412.584 2000.979,406.283C1994.812,399.981 1987.709,396.83 1979.672,396.83C1971.635,396.83 1964.506,399.948 1958.283,406.183C1952.061,412.418 1947.222,421.066 1943.765,432.127C1940.308,443.188 1938.58,455.975 1938.58,470.487C1938.58,484.826 1940.276,497.55 1943.67,508.658C1947.064,519.766 1951.873,528.47 1958.095,534.772C1964.317,541.074 1971.423,544.224 1979.413,544.224Z" style="fill-rule:nonzero;"/>
                <path d="M2198.971,633.302C2179.11,633.302 2161.481,626.359 2146.082,612.474C2130.684,598.589 2118.585,579.311 2109.786,554.638C2100.986,529.966 2096.587,501.929 2096.587,470.527C2096.587,439.34 2100.892,411.516 2109.503,387.058C2118.113,362.599 2129.866,343.267 2144.762,329.061C2159.658,314.856 2176.345,307.753 2194.823,307.753C2212.924,307.753 2228.92,314.429 2242.81,327.78C2256.7,341.13 2267.604,359.555 2275.524,383.052C2283.443,406.55 2287.402,433.358 2287.402,463.478C2287.402,469.246 2287.214,475.227 2286.837,481.422C2286.46,487.617 2285.768,494.666 2284.763,502.57L2126.755,503.531L2126.755,436.242L2260.251,435.281L2235.362,463.799C2235.11,445.855 2233.445,430.955 2230.365,419.1C2227.285,407.244 2222.823,398.219 2216.978,392.024C2211.133,385.829 2203.873,382.732 2195.2,382.732C2186.15,382.732 2178.293,386.256 2171.631,393.306C2164.969,400.355 2159.846,410.342 2156.264,423.265C2152.681,436.189 2150.89,451.729 2150.89,469.887C2150.89,488.257 2152.807,504.011 2156.641,517.149C2160.475,530.286 2165.974,540.326 2173.139,547.268C2180.304,554.211 2188.852,557.682 2198.783,557.682C2207.833,557.682 2216.004,555.065 2223.294,549.832C2230.585,544.598 2236.996,536.641 2242.527,525.96L2274.204,579.791C2265.153,597.521 2254.217,610.872 2241.396,619.844C2228.574,628.816 2214.432,633.302 2198.971,633.302Z" style="fill-rule:nonzero;"/>
                <path d="M2403.74,633.302C2384.759,633.302 2367.632,626.252 2352.359,612.154C2337.086,598.055 2325.05,578.67 2316.251,553.997C2307.452,529.325 2303.052,501.608 2303.052,470.848C2303.052,439.66 2307.483,411.783 2316.345,387.218C2325.207,362.652 2337.306,343.267 2352.642,329.061C2367.977,314.856 2385.199,307.753 2404.305,307.753C2418.635,307.753 2431.771,311.972 2443.713,320.41C2455.654,328.848 2466.276,341.291 2475.578,357.739L2438.81,420.542C2434.537,412.638 2429.54,406.71 2423.82,402.758C2418.101,398.806 2411.596,396.83 2404.305,396.83C2396.135,396.83 2388.844,399.928 2382.433,406.123C2376.022,412.317 2370.963,420.862 2367.255,431.756C2363.546,442.651 2361.692,455.468 2361.692,470.207C2361.692,484.733 2363.546,497.55 2367.255,508.658C2370.963,519.766 2376.054,528.47 2382.527,534.772C2389.001,541.074 2396.26,544.224 2404.305,544.224C2411.973,544.224 2418.73,542.035 2424.575,537.656C2430.42,533.277 2435.479,526.922 2439.753,518.591L2476.521,581.393C2466.842,598.482 2456,611.406 2443.996,620.164C2431.991,628.923 2418.572,633.302 2403.74,633.302Z" style="fill-rule:nonzero;"/>
                <path d="M2525.168,626.252L2525.168,185.993L2582.865,185.993L2582.865,626.252L2525.168,626.252ZM2483.686,398.112L2483.686,314.802L2624.347,314.802L2624.347,398.112L2483.686,398.112Z" style="fill-rule:nonzero;"/>
                <path d="M2734.084,633.302C2715.103,633.302 2698.039,626.146 2682.892,611.833C2667.745,597.521 2655.772,577.975 2646.973,553.196C2638.174,528.417 2633.774,500.647 2633.774,469.887C2633.774,439.126 2638.142,411.57 2646.879,387.218C2655.615,362.866 2667.557,343.534 2682.704,329.221C2697.851,314.909 2714.915,307.753 2733.896,307.753C2753.002,307.753 2770.098,314.856 2785.182,329.061C2800.266,343.267 2812.208,362.599 2821.007,387.058C2829.806,411.516 2834.206,439.126 2834.206,469.887C2834.206,500.647 2829.838,528.417 2821.101,553.196C2812.365,577.975 2800.455,597.521 2785.371,611.833C2770.286,626.146 2753.191,633.302 2734.084,633.302ZM2733.896,544.224C2742.192,544.224 2749.483,541.127 2755.768,534.932C2762.053,528.737 2766.924,520.033 2770.381,508.818C2773.838,497.603 2775.566,484.733 2775.566,470.207C2775.566,455.681 2773.775,442.918 2770.192,431.917C2766.61,420.915 2761.739,412.317 2755.579,406.123C2749.42,399.928 2742.192,396.83 2733.896,396.83C2725.851,396.83 2718.686,399.981 2712.401,406.283C2706.116,412.584 2701.213,421.236 2697.694,432.237C2694.174,443.238 2692.414,456.002 2692.414,470.527C2692.414,484.84 2694.174,497.603 2697.694,508.818C2701.213,520.033 2706.116,528.737 2712.401,534.932C2718.686,541.127 2725.851,544.224 2733.896,544.224Z" style="fill-rule:nonzero;"/>
                <path d="M2862.866,626.252L2862.866,314.802L2920.563,314.802L2920.563,626.252L2862.866,626.252ZM2920.563,455.468L2896.24,423.425C2901.016,386.897 2909.124,358.593 2920.563,338.514C2932.002,318.434 2947.652,308.394 2967.513,308.394C2976.312,308.394 2984.074,310.637 2990.799,315.123C2997.524,319.609 3003.401,326.551 3008.429,335.95L2974.112,409.647C2971.598,404.948 2968.48,401.37 2964.758,398.913C2961.036,396.457 2956.738,395.228 2951.863,395.228C2942.31,395.228 2934.705,400.222 2929.048,410.208C2923.391,420.194 2920.563,435.281 2920.563,455.468Z" style="fill-rule:nonzero;"/>
            </g>
        </g>
    </g>
</svg>
