<svg xmlns="http://www.w3.org/2000/svg" width="1200" height="630" viewBox="0 0 1200 630" role="img" aria-label="SiteSpector placeholder">
  <defs>
    <linearGradient id="bg" x1="0" y1="0" x2="1" y2="1">
      <stop offset="0" stop-color="#0b363d"/>
      <stop offset="1" stop-color="#082a2f"/>
    </linearGradient>
    <linearGradient id="accent" x1="0" y1="0" x2="1" y2="0">
      <stop offset="0" stop-color="#ff8945"/>
      <stop offset="1" stop-color="#ffb07a"/>
    </linearGradient>
  </defs>

  <rect width="1200" height="630" fill="url(#bg)"/>

  <!-- Subtle grid -->
  <g opacity="0.12">
    <path d="M0 105H1200M0 210H1200M0 315H1200M0 420H1200M0 525H1200" stroke="#ffffff" stroke-width="1"/>
    <path d="M150 0V630M300 0V630M450 0V630M600 0V630M750 0V630M900 0V630M1050 0V630" stroke="#ffffff" stroke-width="1"/>
  </g>

  <!-- Icon -->
  <g transform="translate(120 120)">
    <circle cx="88" cy="88" r="88" fill="rgba(255,255,255,0.10)"/>
    <path d="M88 44c-36 0-66 24-80 44 14 20 44 44 80 44s66-24 80-44c-14-20-44-44-80-44zm0 68a24 24 0 1 1 0-48 24 24 0 0 1 0 48z" fill="#ffffff" opacity="0.92"/>
    <circle cx="88" cy="88" r="10" fill="url(#accent)"/>
  </g>

  <!-- Text -->
  <g fill="#ffffff">
    <text x="320" y="270" font-family="system-ui,-apple-system,Segoe UI,Roboto,Helvetica,Arial,sans-serif" font-size="54" font-weight="800" letter-spacing="0.5">
      SiteSpector
    </text>
    <text x="320" y="325" font-family="system-ui,-apple-system,Segoe UI,Roboto,Helvetica,Arial,sans-serif" font-size="22" opacity="0.85">
      Placeholder grafiki (1200×630)  do podmiany na okBadk
    </text>
  </g>

  <!-- Accent line -->
  <rect x="320" y="355" width="520" height="6" rx="3" fill="url(#accent)"/>
</svg>

